<svg width="99" height="39" viewBox="0 0 99 39" fill="none" xmlns="http://www.w3.org/2000/svg">
<path d="M20.75 20.9219C20.75 23.4688 20.5078 25.6719 20.0234 27.5312C19.5547 29.375 18.9453 30.9531 18.1953 32.2656C17.4453 33.5625 16.6016 34.6172 15.6641 35.4297C14.7266 36.2422 13.7891 36.8672 12.8516 37.3047C11.9141 37.7578 11.0312 38.0625 10.2031 38.2188C9.375 38.3906 8.69531 38.4766 8.16406 38.4766C8.03906 38.4766 7.75781 38.4688 7.32031 38.4531C6.89844 38.4375 6.375 38.3984 5.75 38.3359C5.125 38.2891 4.41406 38.2109 3.61719 38.1016C2.83594 37.9922 2.01562 37.8359 1.15625 37.6328C1.17188 34.5391 1.1875 31.8594 1.20312 29.5938C1.23438 27.3125 1.25781 25.3516 1.27344 23.7109C1.28906 22.0703 1.30469 20.6953 1.32031 19.5859C1.33594 18.4766 1.34375 17.5234 1.34375 16.7266C1.35938 15.9297 1.36719 15.25 1.36719 14.6875C1.38281 14.1094 1.39062 13.5469 1.39062 13C1.39062 12.1406 1.38281 11.2578 1.36719 10.3516C1.35156 9.42969 1.32031 8.53906 1.27344 7.67969C1.22656 6.82031 1.16406 6.01562 1.08594 5.26562C1.00781 4.51562 0.90625 3.875 0.78125 3.34375C2 3.26563 3.10938 3.21875 4.10938 3.20312C5.125 3.17188 6 3.15625 6.73438 3.15625C8.57812 3.15625 10.2031 3.38281 11.6094 3.83594C13.0156 4.27344 14.2344 4.89062 15.2656 5.6875C16.3125 6.46875 17.1797 7.41406 17.8672 8.52344C18.5703 9.61719 19.1328 10.8203 19.5547 12.1328C19.9922 13.4453 20.2969 14.8516 20.4688 16.3516C20.6562 17.8359 20.75 19.3594 20.75 20.9219ZM14.6562 20.1953C14.6562 17.4297 14.5234 15.1797 14.2578 13.4453C14.0078 11.6953 13.5938 10.3359 13.0156 9.36719C12.4531 8.39844 11.7109 7.74219 10.7891 7.39844C9.88281 7.03906 8.78125 6.85938 7.48438 6.85938H6.78125L7.0625 34.3984C7.375 34.5234 7.66406 34.6094 7.92969 34.6562C8.21094 34.6875 8.48438 34.7031 8.75 34.7031C9.79688 34.7031 10.6875 34.4609 11.4219 33.9766C12.1719 33.4766 12.7812 32.6641 13.25 31.5391C13.7344 30.3984 14.0859 28.9062 14.3047 27.0625C14.5391 25.2031 14.6562 22.9141 14.6562 20.1953ZM34.6484 37.9609C34.5547 37.4766 34.4688 36.9844 34.3906 36.4844C34.3125 35.9844 34.25 35.4688 34.2031 34.9375C33.4844 36 32.625 36.8125 31.625 37.375C30.625 37.9531 29.5312 38.2422 28.3438 38.2422C27.7344 38.2422 27.1094 38.1406 26.4688 37.9375C25.8281 37.75 25.2422 37.4141 24.7109 36.9297C24.1953 36.4453 23.7656 35.7891 23.4219 34.9609C23.0938 34.1172 22.9297 33.0547 22.9297 31.7734C22.9297 30.7109 23.0859 29.7891 23.3984 29.0078C23.7109 28.2109 24.1172 27.5156 24.6172 26.9219C25.1172 26.3281 25.6797 25.8125 26.3047 25.375C26.9297 24.9375 27.5469 24.5469 28.1562 24.2031C28.7812 23.8594 29.375 23.5391 29.9375 23.2422C30.5 22.9453 30.9609 22.6484 31.3203 22.3516C32.0078 21.8047 32.6016 21.2266 33.1016 20.6172C33.6172 19.9922 34.0312 19.3438 34.3438 18.6719C34.2812 17.5938 34.1641 16.7109 33.9922 16.0234C33.8359 15.3203 33.625 14.7656 33.3594 14.3594C33.0938 13.9375 32.7656 13.6484 32.375 13.4922C32 13.3203 31.5703 13.2344 31.0859 13.2344C30.3672 13.2344 29.7578 13.3906 29.2578 13.7031C28.7734 14.0156 28.375 14.3906 28.0625 14.8281C28.4531 15.0781 28.75 15.3438 28.9531 15.625C29.1719 15.9062 29.3359 16.1797 29.4453 16.4453C29.5703 16.7422 29.6406 17.0469 29.6562 17.3594C29.6562 18.4219 29.3516 19.2344 28.7422 19.7969C28.1484 20.3594 27.3828 20.6406 26.4453 20.6406C25.9609 20.6406 25.5156 20.5312 25.1094 20.3125C24.7031 20.0781 24.3438 19.7578 24.0312 19.3516C23.7344 18.9453 23.5 18.4609 23.3281 17.8984C23.1562 17.3359 23.0703 16.7266 23.0703 16.0703C23.0703 15.4141 23.2188 14.7188 23.5156 13.9844C23.8125 13.25 24.2891 12.5703 24.9453 11.9453C25.6016 11.3047 26.4453 10.7812 27.4766 10.375C28.5078 9.95312 29.7578 9.74219 31.2266 9.74219C32.6953 9.74219 33.9531 10.0312 35 10.6094C36.0469 11.1719 36.9062 11.9297 37.5781 12.8828C38.25 13.8203 38.7344 14.9062 39.0312 16.1406C39.3438 17.375 39.5 18.6484 39.5 19.9609C39.5 20.9453 39.4922 22.0156 39.4766 23.1719C39.4609 24.3281 39.4531 25.5156 39.4531 26.7344C39.4531 27.75 39.4609 28.7656 39.4766 29.7812C39.4922 30.7969 39.5234 31.7812 39.5703 32.7344C39.6172 33.6719 39.6797 34.5625 39.7578 35.4062C39.8359 36.2344 39.9375 36.9766 40.0625 37.6328L34.6484 37.9609ZM34.2969 24.2266C33.75 24.8828 33.1641 25.4453 32.5391 25.9141C32.0703 26.2422 31.5625 26.6094 31.0156 27.0156C30.4844 27.4219 29.9844 27.8516 29.5156 28.3047C29.0625 28.7578 28.6797 29.2344 28.3672 29.7344C28.0703 30.2188 27.9219 30.7188 27.9219 31.2344C27.9219 31.9375 28.0938 32.5391 28.4375 33.0391C28.7812 33.5391 29.2656 33.7891 29.8906 33.7891C30.4688 33.7891 30.9844 33.6328 31.4375 33.3203C31.8906 33.0078 32.2891 32.625 32.6328 32.1719C32.9922 31.7031 33.2891 31.2031 33.5234 30.6719C33.7734 30.1406 33.9688 29.6562 34.1094 29.2188L34.2969 24.2266ZM49.1094 11.0312L48.9688 12.9531C49.4844 12.0938 50.0312 11.4375 50.6094 10.9844C51.2031 10.5312 51.75 10.2109 52.25 10.0234C52.75 9.83594 53.1641 9.73438 53.4922 9.71875C53.8359 9.70312 54.0234 9.69531 54.0547 9.69531C55.2109 9.69531 56.2188 9.96094 57.0781 10.4922C57.9375 11.0234 58.6484 11.7969 59.2109 12.8125C59.7734 13.8125 60.1875 15.0391 60.4531 16.4922C60.7344 17.9297 60.875 19.5625 60.875 21.3906C60.875 22.7344 60.8516 24.1094 60.8047 25.5156C60.7734 26.9062 60.6953 28.2969 60.5703 29.6875C60.4609 31.0625 60.3047 32.4062 60.1016 33.7188C59.9141 35.0312 59.6562 36.2812 59.3281 37.4688L53.8672 36.8125C54.2266 34.9531 54.5078 33.2188 54.7109 31.6094C54.9141 30 55.0625 28.5938 55.1562 27.3906C55.2656 25.9844 55.3281 24.6953 55.3438 23.5234C55.3438 22.0391 55.2969 20.75 55.2031 19.6562C55.1094 18.5469 54.9375 17.6328 54.6875 16.9141C54.4531 16.1797 54.125 15.6328 53.7031 15.2734C53.2812 14.9141 52.7422 14.7344 52.0859 14.7344C51.6484 14.8281 51.2109 15.1406 50.7734 15.6719C50.3984 16.125 50 16.8516 49.5781 17.8516C49.1562 18.8359 48.7891 20.2266 48.4766 22.0234C48.4297 23.2422 48.3984 24.4531 48.3828 25.6562C48.3828 26.8438 48.3828 28.1094 48.3828 29.4531C48.3828 30.5938 48.3828 31.8203 48.3828 33.1328C48.3828 34.4453 48.3984 35.9297 48.4297 37.5859L43.1094 37.4688C43.1562 35.875 43.1875 34.1875 43.2031 32.4062C43.2344 30.6094 43.25 28.6172 43.25 26.4297C43.25 24.2578 43.2344 21.9062 43.2031 19.375C43.1719 16.8438 43.1094 14.0312 43.0156 10.9375L49.1094 11.0312ZM70.4375 4.11719C70.4375 4.61719 70.3438 5.09375 70.1562 5.54688C69.9688 5.98438 69.7109 6.36719 69.3828 6.69531C69.0547 7.02344 68.6641 7.28906 68.2109 7.49219C67.7734 7.67969 67.3047 7.77344 66.8047 7.77344C66.3047 7.77344 65.8281 7.67969 65.375 7.49219C64.9375 7.28906 64.5547 7.02344 64.2266 6.69531C63.8984 6.36719 63.6328 5.98438 63.4297 5.54688C63.2422 5.09375 63.1484 4.61719 63.1484 4.11719C63.1484 3.61719 63.2422 3.14844 63.4297 2.71094C63.6328 2.25781 63.8984 1.86719 64.2266 1.53906C64.5547 1.21094 64.9375 0.953125 65.375 0.765625C65.8281 0.5625 66.3047 0.460938 66.8047 0.460938C67.3047 0.460938 67.7734 0.5625 68.2109 0.765625C68.6641 0.953125 69.0547 1.21094 69.3828 1.53906C69.7109 1.86719 69.9688 2.25781 70.1562 2.71094C70.3438 3.14844 70.4375 3.61719 70.4375 4.11719ZM70.4375 11.2188C70.3125 12.4531 70.2031 13.7891 70.1094 15.2266C70.0312 16.6484 69.9609 18.1094 69.8984 19.6094C69.8516 21.1094 69.8125 22.6172 69.7812 24.1328C69.75 25.6484 69.7266 27.0938 69.7109 28.4688C69.6953 29.8438 69.6797 31.1328 69.6641 32.3359C69.6641 33.5234 69.6641 34.5469 69.6641 35.4062V38.0547L64.3438 38.2422C64.375 37.1641 64.3906 36.1172 64.3906 35.1016C64.3906 34.0859 64.3906 33.0703 64.3906 32.0547C64.3906 30.2891 64.375 28.5703 64.3438 26.8984C64.3125 25.2109 64.2578 23.5234 64.1797 21.8359C64.1172 20.1484 64.0312 18.4375 63.9219 16.7031C63.8125 14.9688 63.6797 13.1719 63.5234 11.3125L70.4375 11.2188ZM90.1719 31.9609C90.1719 32.8828 89.9609 33.75 89.5391 34.5625C89.1172 35.375 88.5469 36.0781 87.8281 36.6719C87.1094 37.2656 86.2656 37.7344 85.2969 38.0781C84.3281 38.4219 83.2969 38.5938 82.2031 38.5938C81.4688 38.5938 80.7266 38.4922 79.9766 38.2891C79.2266 38.0859 78.5078 37.75 77.8203 37.2812C77.1328 36.8125 76.4844 36.1953 75.875 35.4297C75.2656 34.6641 74.7344 33.7266 74.2812 32.6172C73.8438 31.5078 73.4922 30.2109 73.2266 28.7266C72.9766 27.2266 72.8516 25.5078 72.8516 23.5703C72.8516 21.7422 72.9766 20.125 73.2266 18.7188C73.4922 17.3125 73.8438 16.0859 74.2812 15.0391C74.7344 13.9922 75.2578 13.1172 75.8516 12.4141C76.4453 11.6953 77.0781 11.1172 77.75 10.6797C78.4375 10.2266 79.1406 9.90625 79.8594 9.71875C80.5938 9.53125 81.3125 9.4375 82.0156 9.4375C83.0625 9.4375 84.0547 9.60938 84.9922 9.95312C85.9297 10.2812 86.75 10.7734 87.4531 11.4297C88.1562 12.0859 88.7109 12.8984 89.1172 13.8672C89.5391 14.8203 89.75 15.9219 89.75 17.1719C89.75 18.2969 89.5156 19.4375 89.0469 20.5938C88.5938 21.7344 87.9141 22.8203 87.0078 23.8516C86.1016 24.8672 84.9766 25.7969 83.6328 26.6406C82.3047 27.4688 80.7734 28.125 79.0391 28.6094C79.1328 29.5781 79.2656 30.4609 79.4375 31.2578C79.625 32.0547 79.8516 32.7344 80.1172 33.2969C80.3984 33.8594 80.7188 34.2969 81.0781 34.6094C81.4531 34.9219 81.8828 35.0781 82.3672 35.0781C82.6797 35.0625 82.9766 35.0078 83.2578 34.9141C83.5078 34.8359 83.7578 34.7109 84.0078 34.5391C84.2734 34.3672 84.4922 34.1172 84.6641 33.7891C84.2578 33.6016 83.9453 33.3594 83.7266 33.0625C83.5078 32.7656 83.3438 32.4844 83.2344 32.2188C83.1094 31.9062 83.0391 31.5781 83.0234 31.2344C83.0234 30.4844 83.1719 29.875 83.4688 29.4062C83.7656 28.9375 84.1172 28.5703 84.5234 28.3047C84.9297 28.0391 85.3438 27.8594 85.7656 27.7656C86.1875 27.6562 86.5234 27.6016 86.7734 27.6016C87.0391 27.6016 87.3594 27.6562 87.7344 27.7656C88.125 27.875 88.5 28.0859 88.8594 28.3984C89.2188 28.7109 89.5234 29.1562 89.7734 29.7344C90.0391 30.2969 90.1719 31.0391 90.1719 31.9609ZM84.3828 17.2188C84.3828 16.6562 84.3281 16.125 84.2188 15.625C84.125 15.1094 83.9766 14.6641 83.7734 14.2891C83.5859 13.9141 83.3438 13.6172 83.0469 13.3984C82.7656 13.1641 82.4375 13.0469 82.0625 13.0469C81.4219 13.0469 80.8984 13.3438 80.4922 13.9375C80.0859 14.5156 79.7578 15.2891 79.5078 16.2578C79.2578 17.2266 79.0859 18.3438 78.9922 19.6094C78.8984 20.875 78.8516 22.1953 78.8516 23.5703V25.2812C79.6484 24.8594 80.3828 24.3594 81.0547 23.7812C81.7422 23.2031 82.3281 22.5703 82.8125 21.8828C83.3125 21.1797 83.6953 20.4375 83.9609 19.6562C84.2422 18.875 84.3828 18.0625 84.3828 17.2188ZM98.7969 0.953125C98.7031 2.85937 98.6172 4.625 98.5391 6.25C98.4609 7.875 98.3906 9.40625 98.3281 10.8438C98.2812 12.2812 98.2422 13.6484 98.2109 14.9453C98.1797 16.2422 98.1484 17.5234 98.1172 18.7891C98.1016 20.0547 98.0859 21.3281 98.0703 22.6094C98.0703 23.8906 98.0703 25.2344 98.0703 26.6406C98.0703 28.2031 98.0703 29.875 98.0703 31.6562C98.0703 33.4375 98.0859 35.4141 98.1172 37.5859L92.7969 37.4688C92.8906 35.1094 92.9531 32.7891 92.9844 30.5078C93.0156 28.2109 93.0312 25.8594 93.0312 23.4531C93.0312 21.8438 93.0234 20.1953 93.0078 18.5078C92.9922 16.8047 92.9688 15.0312 92.9375 13.1875C92.9062 11.3281 92.8672 9.375 92.8203 7.32812C92.7891 5.28125 92.75 3.10938 92.7031 0.8125L98.7969 0.953125Z" fill="#49FB35"/>
</svg>
